<mxfile host="app.diagrams.net" modified="2023-08-23T21:54:25.525Z" agent="Mozilla/5.0 (Windows NT 10.0; Win64; x64) AppleWebKit/537.36 (KHTML, like Gecko) Chrome/116.0.0.0 Safari/537.36" version="21.6.8" etag="YdzR-WnF3eIPAQOqzmu0" type="github">
  <diagram name="Page-1" id="IhEWBWBzaqd-4WDI_b_9">
    <mxGraphModel>
      <root>
        <mxCell id="0" />
        <mxCell id="1" parent="0" />
      </root>
    </mxGraphModel>
  </diagram>
</mxfile>
